<svg width="175" height="40" viewBox="0 0 175 40" fill="none" xmlns="http://www.w3.org/2000/svg">
<g clip-path="url(#clip0_1204_313)">
<path d="M39.8677 19.9085C39.8677 30.903 30.9538 39.8169 19.9592 39.8169C8.96472 39.8169 0.0507812 30.903 0.0507812 19.9085C0.0507812 8.91394 8.96472 0 19.9592 0C30.9561 0 39.8677 8.91394 39.8677 19.9085Z" fill="#2081E2"/>
<path d="M9.8722 20.5773L9.95808 20.4423L15.1371 12.3404C15.2128 12.2218 15.3907 12.2341 15.448 12.3629C16.3132 14.302 17.0597 16.7135 16.71 18.2149C16.5607 18.8326 16.1516 19.6691 15.6914 20.4423C15.6321 20.5548 15.5666 20.6653 15.4971 20.7716C15.4643 20.8207 15.4091 20.8493 15.3498 20.8493H10.0235C9.88036 20.8493 9.7965 20.6939 9.8722 20.5773Z" fill="white"/>
<path d="M32.957 22.0828V23.3653C32.957 23.4389 32.912 23.5043 32.8466 23.533C32.4457 23.7048 31.0732 24.3348 30.5025 25.1284C29.0462 27.1554 27.9335 30.0538 25.4463 30.0538H15.0699C11.3923 30.0538 8.41211 27.0634 8.41211 23.3734V23.2548C8.41211 23.1566 8.49186 23.0769 8.59005 23.0769H14.3745C14.489 23.0769 14.5729 23.1832 14.5627 23.2957C14.5217 23.6721 14.5913 24.0566 14.7692 24.4064C15.1129 25.1039 15.8247 25.5395 16.5937 25.5395H19.4573V23.3039H16.6265C16.4812 23.3039 16.3954 23.1362 16.4792 23.0175C16.5099 22.9705 16.5447 22.9214 16.5815 22.8662C16.8494 22.4857 17.2319 21.8946 17.6124 21.2217C17.8721 20.7676 18.1237 20.2828 18.3262 19.796C18.3671 19.7081 18.3998 19.6181 18.4326 19.5301C18.4878 19.3747 18.5451 19.2294 18.586 19.0842C18.6269 18.9615 18.6596 18.8326 18.6923 18.7119C18.7885 18.2988 18.8294 17.8611 18.8294 17.407C18.8294 17.229 18.8212 17.0429 18.8048 16.865C18.7966 16.6706 18.7721 16.4763 18.7476 16.282C18.7312 16.1102 18.7005 15.9404 18.6678 15.7625C18.6269 15.5027 18.5696 15.245 18.5041 14.9852L18.4817 14.887C18.4326 14.7091 18.3917 14.5393 18.3344 14.3614C18.1728 13.8029 17.9867 13.2589 17.7903 12.7496C17.7187 12.5471 17.6369 12.3528 17.5551 12.1585C17.4344 11.866 17.3117 11.6001 17.1992 11.3485C17.1419 11.2339 17.0928 11.1296 17.0437 11.0232C16.9885 10.9026 16.9313 10.7819 16.874 10.6674C16.8331 10.5794 16.786 10.4976 16.7533 10.4158L16.4035 9.76941C16.3544 9.68146 16.4363 9.57714 16.5324 9.60374L18.721 10.1969H18.7271C18.7312 10.1969 18.7333 10.199 18.7353 10.199L19.0237 10.2787L19.3407 10.3687L19.4573 10.4014V9.10057C19.4573 8.47262 19.9605 7.96332 20.5823 7.96332C20.8932 7.96332 21.1755 8.09013 21.378 8.2967C21.5804 8.50331 21.7073 8.78558 21.7073 9.10057V11.0315L21.9405 11.0969C21.9589 11.103 21.9773 11.1112 21.9936 11.1235C22.0509 11.1664 22.1327 11.2298 22.237 11.3076C22.3188 11.373 22.4068 11.4528 22.5132 11.5346C22.7238 11.7044 22.9754 11.9232 23.2516 12.1748C23.3252 12.2382 23.3968 12.3037 23.4622 12.3691C23.8182 12.7005 24.217 13.0891 24.5975 13.5187C24.7038 13.6393 24.8081 13.7621 24.9145 13.8909C25.0208 14.0218 25.1334 14.1507 25.2315 14.2796C25.3604 14.4514 25.4995 14.6293 25.6202 14.8155C25.6774 14.9034 25.7429 14.9934 25.7981 15.0814C25.9535 15.3165 26.0906 15.56 26.2215 15.8034C26.2767 15.9159 26.334 16.0386 26.3831 16.1593C26.5283 16.4845 26.6428 16.8159 26.7165 17.1472C26.739 17.2188 26.7553 17.2965 26.7635 17.3661V17.3825C26.7881 17.4806 26.7963 17.5849 26.8044 17.6913C26.8372 18.0308 26.8208 18.3703 26.7472 18.7119C26.7165 18.8572 26.6756 18.9942 26.6265 19.1395C26.5774 19.2785 26.5283 19.4237 26.4649 19.5608C26.3422 19.8451 26.1969 20.1294 26.0251 20.3953C25.9699 20.4935 25.9044 20.5978 25.839 20.696C25.7674 20.8003 25.6938 20.8985 25.6283 20.9946C25.5383 21.1174 25.4422 21.2462 25.344 21.3608C25.2561 21.4814 25.1661 21.6021 25.0679 21.7085C24.9308 21.8701 24.7999 22.0235 24.6629 22.1708C24.5811 22.2669 24.4931 22.3651 24.4031 22.453C24.3152 22.5512 24.2252 22.6391 24.1433 22.7209C24.0063 22.858 23.8918 22.9643 23.7956 23.0523L23.5707 23.2589C23.5379 23.2875 23.495 23.3039 23.45 23.3039H21.7073V25.5395H23.8999C24.3908 25.5395 24.8572 25.3657 25.2336 25.0466C25.3624 24.9341 25.9249 24.4473 26.5897 23.713C26.6122 23.6884 26.6408 23.67 26.6735 23.6619L32.73 21.911C32.8425 21.8783 32.957 21.9641 32.957 22.0828Z" fill="white"/>
<path d="M59.2668 29.4631C57.4671 29.4631 55.8127 29.0598 54.304 28.2532C52.8133 27.4465 51.6223 26.3243 50.7316 24.8864C49.8592 23.431 49.4229 21.8002 49.4229 19.9941C49.4229 18.188 49.8592 16.5659 50.7316 15.1281C51.6223 13.6902 52.8133 12.5679 54.304 11.7613C55.8127 10.9547 57.4671 10.5514 59.2668 10.5514C61.0665 10.5514 62.7118 10.9547 64.2025 11.7613C65.7116 12.5679 66.8929 13.6902 67.7474 15.1281C68.6202 16.5659 69.0562 18.188 69.0562 19.9941C69.0562 21.8002 68.6202 23.431 67.7474 24.8864C66.875 26.3243 65.6932 27.4465 64.2025 28.2532C62.7118 29.0598 61.0665 29.4631 59.2668 29.4631ZM59.2668 25.3598C60.7938 25.3598 62.0118 24.8688 62.9208 23.8869C63.8481 22.9049 64.3116 21.6073 64.3116 19.9941C64.3116 18.3633 63.8481 17.0657 62.9208 16.1013C62.0118 15.1193 60.7938 14.6283 59.2668 14.6283C57.7215 14.6283 56.4856 15.1105 55.5582 16.075C54.6492 17.0394 54.1949 18.3458 54.1949 19.9941C54.1949 21.6248 54.6492 22.9312 55.5582 23.9132C56.4856 24.8776 57.7215 25.3598 59.2668 25.3598Z" fill="white"/>
<path d="M76.3143 16.6799C76.7686 15.996 77.3958 15.4437 78.1957 15.0228C78.9956 14.602 79.9317 14.3915 81.0044 14.3915C82.2586 14.3915 83.395 14.6984 84.4131 15.3121C85.4308 15.9259 86.2307 16.8027 86.8125 17.9424C87.4125 19.0822 87.7123 20.4061 87.7123 21.9142C87.7123 23.4222 87.4125 24.7549 86.8125 25.9122C86.2307 27.052 85.4308 27.9375 84.4131 28.5688C83.395 29.1825 82.2586 29.4893 81.0044 29.4893C79.95 29.4893 79.0139 29.2789 78.1957 28.8581C77.3958 28.4372 76.7686 27.8937 76.3143 27.2273V33.6452H71.6514V14.602H76.3143V16.6799ZM82.9677 21.9142C82.9677 20.7919 82.6404 19.9151 81.9859 19.2839C81.3496 18.6351 80.5588 18.3107 79.6136 18.3107C78.6866 18.3107 77.8959 18.6351 77.2413 19.2839C76.605 19.9327 76.2869 20.8182 76.2869 21.9404C76.2869 23.0627 76.605 23.9482 77.2413 24.597C77.8959 25.2458 78.6866 25.5702 79.6136 25.5702C80.5409 25.5702 81.3317 25.2458 81.9859 24.597C82.6404 23.9307 82.9677 23.0364 82.9677 21.9142Z" fill="white"/>
<path d="M104.502 21.7037C104.502 22.1246 104.475 22.5629 104.42 23.0189H93.8669C93.9398 23.9307 94.2396 24.6321 94.7668 25.1231C95.3123 25.5965 95.9756 25.8333 96.7576 25.8333C97.9211 25.8333 98.7298 25.3598 99.1845 24.4129H104.147C103.893 25.3774 103.429 26.2453 102.756 27.0169C102.102 27.7884 101.275 28.3934 100.275 28.8318C99.2753 29.2701 98.1572 29.4893 96.9213 29.4893C95.4305 29.4893 94.1034 29.1825 92.94 28.5688C91.7765 27.955 90.8675 27.0783 90.2129 25.9385C89.5587 24.7987 89.2314 23.466 89.2314 21.9404C89.2314 20.4149 89.5496 19.0822 90.1859 17.9424C90.8401 16.8027 91.7491 15.9259 92.9125 15.3121C94.076 14.6984 95.4122 14.3915 96.9213 14.3915C98.3937 14.3915 99.7025 14.6897 100.848 15.2859C101.993 15.882 102.884 16.7325 103.52 17.8372C104.175 18.9419 104.502 20.2308 104.502 21.7037ZM99.73 20.5201C99.73 19.7486 99.4572 19.1348 98.9117 18.6789C98.3662 18.223 97.6846 17.9951 96.8667 17.9951C96.0847 17.9951 95.4214 18.2142 94.8759 18.6526C94.3487 19.091 94.0214 19.7135 93.8944 20.5201H99.73Z" fill="white"/>
<path d="M116.234 14.4443C118.016 14.4443 119.434 15.0054 120.488 16.1277C121.561 17.2323 122.097 18.7579 122.097 20.7043V29.279H117.461V21.3093C117.461 20.3273 117.197 19.5645 116.67 19.021C116.143 18.4773 115.434 18.2055 114.544 18.2055C113.653 18.2055 112.944 18.4773 112.417 19.021C111.889 19.5645 111.626 20.3273 111.626 21.3093V29.279H106.963V14.6021H111.626V16.5485C112.098 15.8997 112.735 15.3912 113.535 15.0229C114.334 14.6371 115.234 14.4443 116.234 14.4443Z" fill="white"/>
<path d="M132.263 29.4631C130.863 29.4631 129.608 29.2439 128.5 28.8055C127.391 28.3671 126.5 27.7183 125.827 26.8591C125.173 25.9999 124.827 24.9653 124.791 23.7554H129.754C129.827 24.4393 130.072 24.9653 130.49 25.3335C130.908 25.6843 131.454 25.8596 132.126 25.8596C132.817 25.8596 133.362 25.7105 133.763 25.4125C134.162 25.0968 134.363 24.6672 134.363 24.1236C134.363 23.6677 134.199 23.2907 133.872 22.9926C133.563 22.6945 133.172 22.449 132.699 22.2561C132.244 22.0632 131.59 21.844 130.736 21.5986C129.499 21.2303 128.49 20.8621 127.709 20.4938C126.927 20.1256 126.255 19.582 125.691 18.8631C125.127 18.1441 124.846 17.206 124.846 16.0487C124.846 14.3302 125.491 12.9888 126.782 12.0243C128.072 11.0424 129.754 10.5514 131.826 10.5514C133.935 10.5514 135.635 11.0424 136.926 12.0243C138.216 12.9888 138.907 14.339 138.998 16.075H133.953C133.917 15.4788 133.69 15.0141 133.272 14.6809C132.854 14.3302 132.317 14.1549 131.663 14.1549C131.099 14.1549 130.645 14.3039 130.299 14.602C129.954 14.8826 129.781 15.2947 129.781 15.8382C129.781 16.4344 130.072 16.8991 130.654 17.2323C131.236 17.5655 132.144 17.9249 133.381 18.3107C134.617 18.714 135.617 19.0998 136.38 19.468C137.162 19.8363 137.835 20.3711 138.398 21.0725C138.962 21.7739 139.243 22.677 139.243 23.7817C139.243 24.8338 138.962 25.7895 138.398 26.6487C137.853 27.5079 137.053 28.1918 135.999 28.7003C134.944 29.2088 133.699 29.4631 132.263 29.4631Z" fill="white"/>
<path d="M156.456 21.7037C156.456 22.1246 156.429 22.5629 156.374 23.0189H145.821C145.894 23.9307 146.194 24.6321 146.721 25.1231C147.266 25.5965 147.93 25.8333 148.712 25.8333C149.875 25.8333 150.684 25.3598 151.139 24.4129H156.101C155.847 25.3774 155.383 26.2453 154.711 27.0169C154.056 27.7884 153.229 28.3934 152.229 28.8318C151.229 29.2701 150.111 29.4893 148.875 29.4893C147.385 29.4893 146.058 29.1825 144.894 28.5688C143.731 27.955 142.822 27.0783 142.167 25.9385C141.513 24.7987 141.186 23.466 141.186 21.9404C141.186 20.4149 141.504 19.0822 142.14 17.9424C142.794 16.8027 143.703 15.9259 144.867 15.3121C146.03 14.6984 147.366 14.3915 148.875 14.3915C150.348 14.3915 151.657 14.6897 152.802 15.2859C153.947 15.882 154.838 16.7325 155.474 17.8372C156.129 18.9419 156.456 20.2308 156.456 21.7037ZM151.684 20.5201C151.684 19.7486 151.411 19.1348 150.866 18.6789C150.32 18.223 149.639 17.9951 148.821 17.9951C148.039 17.9951 147.375 18.2142 146.83 18.6526C146.303 19.091 145.976 19.7135 145.849 20.5201H151.684Z" fill="white"/>
<path d="M157.989 21.9142C157.989 20.4061 158.28 19.0822 158.862 17.9424C159.462 16.8027 160.271 15.9259 161.289 15.3121C162.307 14.6984 163.443 14.3915 164.698 14.3915C165.77 14.3915 166.706 14.602 167.506 15.0228C168.324 15.4437 168.951 15.996 169.388 16.6799V14.602H174.051V29.2789H169.388V27.201C168.933 27.8849 168.297 28.4372 167.479 28.8581C166.679 29.2789 165.743 29.4893 164.67 29.4893C163.434 29.4893 162.307 29.1825 161.289 28.5688C160.271 27.9375 159.462 27.052 158.862 25.9122C158.28 24.7549 157.989 23.4222 157.989 21.9142ZM169.388 21.9404C169.388 20.8182 169.06 19.9327 168.406 19.2839C167.77 18.6351 166.988 18.3107 166.061 18.3107C165.134 18.3107 164.343 18.6351 163.689 19.2839C163.052 19.9151 162.734 20.7919 162.734 21.9142C162.734 23.0364 163.052 23.9307 163.689 24.597C164.343 25.2458 165.134 25.5702 166.061 25.5702C166.988 25.5702 167.77 25.2458 168.406 24.597C169.06 23.9482 169.388 23.0627 169.388 21.9404Z" fill="white"/>
</g>
<defs>
<clipPath id="clip0_1204_313">
<rect width="174" height="39.8169" fill="white" transform="translate(0.0507812)"/>
</clipPath>
</defs>
</svg>
